<svg xmlns="http://www.w3.org/2000/svg" xmlns:xlink="http://www.w3.org/1999/xlink" width="180" zoomAndPan="magnify" viewBox="0 0 135 44.999999" height="60" preserveAspectRatio="xMidYMid meet" version="1.0"><defs><g/></defs><g fill="#000000" fill-opacity="1"><g transform="translate(37.553235, 31.817787)"><g><path d="M 11.71875 -7.875 L 12.125 -7.671875 C 12.101562 -7.578125 12.066406 -7.445312 12.015625 -7.28125 C 11.972656 -7.113281 11.867188 -6.796875 11.703125 -6.328125 C 11.546875 -5.859375 11.375 -5.410156 11.1875 -4.984375 C 11.007812 -4.566406 10.769531 -4.097656 10.46875 -3.578125 C 10.164062 -3.066406 9.84375 -2.625 9.5 -2.25 C 9.164062 -1.875 8.769531 -1.554688 8.3125 -1.296875 C 7.851562 -1.046875 7.375 -0.921875 6.875 -0.921875 C 6.40625 -0.890625 5.984375 -1.015625 5.609375 -1.296875 C 5.234375 -1.585938 4.972656 -1.890625 4.828125 -2.203125 L 4.640625 -2.65625 C 4.109375 -0.832031 3.195312 0.0507812 1.90625 0 C 1.40625 0.0195312 1 -0.269531 0.6875 -0.875 C 0.382812 -1.476562 0.191406 -2.269531 0.109375 -3.25 C 0.0351562 -4.238281 0 -5.347656 0 -6.578125 C 0 -7.804688 0.0507812 -9.046875 0.15625 -10.296875 C 0.257812 -11.546875 0.34375 -12.742188 0.40625 -13.890625 C 0.476562 -15.035156 0.539062 -16.003906 0.59375 -16.796875 C 0.65625 -17.597656 0.640625 -18.164062 0.546875 -18.5 C 0.609375 -18.507812 0.6875 -18.519531 0.78125 -18.53125 C 0.875 -18.550781 1.054688 -18.566406 1.328125 -18.578125 C 1.597656 -18.585938 1.851562 -18.578125 2.09375 -18.546875 C 2.34375 -18.515625 2.609375 -18.4375 2.890625 -18.3125 C 3.179688 -18.1875 3.425781 -18.015625 3.625 -17.796875 C 3.832031 -17.585938 3.992188 -17.285156 4.109375 -16.890625 C 4.234375 -16.503906 4.28125 -16.054688 4.25 -15.546875 C 3.976562 -12.078125 3.8125 -9.171875 3.75 -6.828125 C 4.34375 -9.617188 5.203125 -11.015625 6.328125 -11.015625 C 7.253906 -11.015625 7.796875 -10.5625 7.953125 -9.65625 C 8.140625 -8.59375 7.785156 -7.382812 6.890625 -6.03125 C 6.472656 -5.40625 5.96875 -4.828125 5.375 -4.296875 C 5.375 -4.140625 5.382812 -3.96875 5.40625 -3.78125 C 5.425781 -3.601562 5.472656 -3.328125 5.546875 -2.953125 C 5.628906 -2.578125 5.800781 -2.269531 6.0625 -2.03125 C 6.320312 -1.800781 6.640625 -1.6875 7.015625 -1.6875 C 7.585938 -1.6875 8.140625 -1.894531 8.671875 -2.3125 C 9.203125 -2.738281 9.644531 -3.253906 10 -3.859375 C 10.351562 -4.472656 10.664062 -5.082031 10.9375 -5.6875 C 11.207031 -6.300781 11.40625 -6.820312 11.53125 -7.25 Z M 6.3125 -8.984375 C 6.03125 -8.984375 5.828125 -8.742188 5.703125 -8.265625 C 5.578125 -7.785156 5.441406 -7.054688 5.296875 -6.078125 C 5.265625 -5.828125 5.242188 -5.640625 5.234375 -5.515625 C 6.179688 -6.796875 6.671875 -7.785156 6.703125 -8.484375 C 6.703125 -8.816406 6.570312 -8.984375 6.3125 -8.984375 Z M 6.3125 -8.984375 "/></g></g></g><g fill="#000000" fill-opacity="1"><g transform="translate(47.281215, 31.817787)"><g><path d="M 13.34375 -7.625 L 14.109375 -7.625 C 14.046875 -7.40625 13.953125 -7.117188 13.828125 -6.765625 C 13.703125 -6.410156 13.421875 -5.785156 12.984375 -4.890625 C 12.546875 -3.992188 12.078125 -3.195312 11.578125 -2.5 C 11.078125 -1.800781 10.410156 -1.171875 9.578125 -0.609375 C 8.753906 -0.046875 7.898438 0.234375 7.015625 0.234375 C 6.429688 0.234375 5.976562 0.0234375 5.65625 -0.390625 C 5.34375 -0.804688 5.15625 -1.300781 5.09375 -1.875 C 5.03125 -2.457031 5.019531 -3.171875 5.0625 -4.015625 C 3.96875 -2.953125 2.8125 -2.519531 1.59375 -2.71875 C 0.832031 -2.863281 0.335938 -3.25 0.109375 -3.875 C -0.109375 -4.5 -0.0546875 -5.171875 0.265625 -5.890625 C 0.585938 -6.609375 1.085938 -7.175781 1.765625 -7.59375 C 2.867188 -8.28125 4.125 -8.507812 5.53125 -8.28125 C 5.582031 -9 5.566406 -9.519531 5.484375 -9.84375 C 5.546875 -9.863281 5.625 -9.878906 5.71875 -9.890625 C 5.8125 -9.910156 5.992188 -9.921875 6.265625 -9.921875 C 6.546875 -9.929688 6.804688 -9.921875 7.046875 -9.890625 C 7.285156 -9.859375 7.550781 -9.78125 7.84375 -9.65625 C 8.132812 -9.53125 8.378906 -9.363281 8.578125 -9.15625 C 8.785156 -8.945312 8.945312 -8.644531 9.0625 -8.25 C 9.175781 -7.863281 9.210938 -7.40625 9.171875 -6.875 C 8.929688 -3.625 9.109375 -1.988281 9.703125 -1.96875 C 9.941406 -1.957031 10.234375 -2.144531 10.578125 -2.53125 C 11.203125 -3.238281 11.742188 -4.015625 12.203125 -4.859375 C 12.660156 -5.710938 12.96875 -6.390625 13.125 -6.890625 Z M 2.515625 -5.328125 C 2.484375 -4.523438 2.816406 -4.242188 3.515625 -4.484375 C 4.078125 -4.679688 4.65625 -5.101562 5.25 -5.75 C 5.3125 -6.34375 5.367188 -6.785156 5.421875 -7.078125 C 5.171875 -7.078125 4.914062 -7.054688 4.65625 -7.015625 C 4.394531 -6.984375 4.085938 -6.914062 3.734375 -6.8125 C 3.390625 -6.707031 3.101562 -6.523438 2.875 -6.265625 C 2.644531 -6.015625 2.523438 -5.703125 2.515625 -5.328125 Z M 2.515625 -5.328125 "/></g></g></g><g fill="#000000" fill-opacity="1"><g transform="translate(59.42361, 31.817787)"><g><path d="M 9.765625 -7.40625 L 10.25 -7.171875 C 9.5625 -5.828125 9.078125 -4.914062 8.796875 -4.4375 C 8.566406 -3.976562 8.328125 -3.601562 8.078125 -3.3125 C 7.859375 -3.0625 7.675781 -2.878906 7.53125 -2.765625 C 7.519531 -2.753906 7.492188 -2.734375 7.453125 -2.703125 C 7.410156 -2.679688 7.378906 -2.660156 7.359375 -2.640625 C 7.347656 -2.628906 7.316406 -2.613281 7.265625 -2.59375 C 7.222656 -2.582031 7.195312 -2.570312 7.1875 -2.5625 C 7.164062 -2.5625 7.125 -2.546875 7.0625 -2.515625 L 7 -2.515625 L 6.96875 -2.484375 L 6.734375 -2.484375 C 6.628906 -2.484375 6.535156 -2.515625 6.453125 -2.578125 C 6.347656 -2.628906 6.269531 -2.707031 6.21875 -2.8125 C 6.175781 -2.875 6.113281 -3.046875 6.03125 -3.328125 C 6 -3.546875 5.984375 -3.851562 5.984375 -4.25 C 6.003906 -4.632812 6.046875 -5.203125 6.109375 -5.953125 C 6.140625 -6.328125 6.15625 -6.601562 6.15625 -6.78125 C 6.15625 -7.125 6.144531 -7.359375 6.125 -7.484375 C 6.113281 -7.546875 6.078125 -7.59375 6.015625 -7.625 C 5.960938 -7.65625 5.898438 -7.628906 5.828125 -7.546875 L 5.6875 -7.40625 C 5.570312 -7.269531 5.460938 -7.082031 5.359375 -6.84375 C 5.273438 -6.707031 5.171875 -6.5 5.046875 -6.21875 C 4.816406 -5.601562 4.671875 -5.195312 4.609375 -5 C 4.398438 -4.40625 4.210938 -3.769531 4.046875 -3.09375 L 3.828125 -2.328125 C 3.515625 -1.109375 2.835938 -0.484375 1.796875 -0.453125 C 1.148438 -0.429688 0.679688 -0.675781 0.390625 -1.1875 C 0.0976562 -1.695312 -0.0234375 -2.34375 0.015625 -3.125 C 0.0546875 -3.914062 0.128906 -4.769531 0.234375 -5.6875 C 0.335938 -6.613281 0.445312 -7.472656 0.5625 -8.265625 C 0.675781 -9.066406 0.671875 -9.742188 0.546875 -10.296875 C 0.597656 -10.304688 0.671875 -10.316406 0.765625 -10.328125 C 0.859375 -10.347656 1.03125 -10.363281 1.28125 -10.375 C 1.53125 -10.394531 1.765625 -10.382812 1.984375 -10.34375 C 2.210938 -10.3125 2.457031 -10.21875 2.71875 -10.0625 C 2.988281 -9.914062 3.21875 -9.710938 3.40625 -9.453125 C 3.59375 -9.203125 3.738281 -8.84375 3.84375 -8.375 C 3.945312 -7.90625 3.984375 -7.359375 3.953125 -6.734375 L 3.953125 -6.609375 C 4.765625 -8.015625 5.484375 -8.710938 6.109375 -8.703125 C 6.546875 -8.679688 6.796875 -8.332031 6.859375 -7.65625 C 6.921875 -6.976562 6.890625 -6.347656 6.765625 -5.765625 C 6.765625 -5.640625 6.75 -5.46875 6.71875 -5.25 L 6.71875 -5.109375 C 6.6875 -4.921875 6.65625 -4.625 6.625 -4.21875 C 6.625 -3.863281 6.628906 -3.613281 6.640625 -3.46875 C 6.671875 -3.34375 6.695312 -3.265625 6.71875 -3.234375 L 6.765625 -3.1875 L 6.8125 -3.1875 L 6.875 -3.21875 L 6.953125 -3.21875 C 6.953125 -3.226562 6.96875 -3.234375 7 -3.234375 C 7.007812 -3.253906 7.023438 -3.265625 7.046875 -3.265625 C 7.078125 -3.273438 7.097656 -3.28125 7.109375 -3.28125 L 7.15625 -3.328125 C 7.1875 -3.347656 7.210938 -3.363281 7.234375 -3.375 C 7.273438 -3.40625 7.414062 -3.539062 7.65625 -3.78125 C 7.914062 -4.09375 8.148438 -4.4375 8.359375 -4.8125 Z M 9.765625 -7.40625 "/></g></g></g><g fill="#ff3131" fill-opacity="1"><g transform="translate(67.206088, 31.817787)"><g><path d="M 7.203125 -8.71875 C 8.046875 -8.613281 8.421875 -7.988281 8.328125 -6.84375 C 8.210938 -5.582031 7.625 -4.253906 6.5625 -2.859375 C 5.75 -1.796875 4.835938 -0.992188 3.828125 -0.453125 C 3.648438 3.773438 3.765625 6.015625 4.171875 6.265625 C 3.859375 7.359375 3.109375 7.925781 1.921875 7.96875 C 1.421875 7.988281 1.019531 7.695312 0.71875 7.09375 C 0.414062 6.488281 0.21875 5.691406 0.125 4.703125 C 0.0390625 3.722656 0 2.617188 0 1.390625 C 0 0.160156 0.0507812 -1.078125 0.15625 -2.328125 C 0.269531 -3.578125 0.363281 -4.773438 0.4375 -5.921875 C 0.507812 -7.066406 0.570312 -8.035156 0.625 -8.828125 C 0.675781 -9.628906 0.65625 -10.195312 0.5625 -10.53125 C 0.625 -10.539062 0.703125 -10.550781 0.796875 -10.5625 C 0.890625 -10.582031 1.070312 -10.597656 1.34375 -10.609375 C 1.625 -10.617188 1.882812 -10.609375 2.125 -10.578125 C 2.363281 -10.546875 2.628906 -10.46875 2.921875 -10.34375 C 3.210938 -10.21875 3.457031 -10.046875 3.65625 -9.828125 C 3.863281 -9.617188 4.023438 -9.316406 4.140625 -8.921875 C 4.253906 -8.535156 4.289062 -8.078125 4.25 -7.546875 C 4.25 -7.472656 4.234375 -7.265625 4.203125 -6.921875 C 4.179688 -6.585938 4.164062 -6.320312 4.15625 -6.125 C 5.039062 -8.007812 6.054688 -8.875 7.203125 -8.71875 Z M 3.890625 -1.671875 L 3.875 -1.6875 L 3.875 -1.640625 C 4.914062 -2.347656 5.757812 -3.484375 6.40625 -5.046875 C 6.9375 -6.328125 7.066406 -7.203125 6.796875 -7.671875 C 6.734375 -7.804688 6.625 -7.882812 6.46875 -7.90625 C 6.050781 -7.9375 5.625 -7.429688 5.1875 -6.390625 C 4.757812 -5.347656 4.4375 -4.296875 4.21875 -3.234375 Z M 3.890625 -1.671875 "/></g></g></g><g fill="#000000" fill-opacity="1"><g transform="translate(75.879919, 31.817787)"><g><path d="M 12.640625 -7.6875 C 12.640625 -7.6875 12.8125 -7.703125 13.15625 -7.734375 C 13.382812 -7.722656 13.46875 -7.609375 13.40625 -7.390625 C 13.40625 -7.367188 13.363281 -7.191406 13.28125 -6.859375 C 13.207031 -6.523438 13.128906 -6.179688 13.046875 -5.828125 C 12.960938 -5.472656 12.828125 -5.03125 12.640625 -4.5 C 12.453125 -3.96875 12.253906 -3.46875 12.046875 -3 C 11.847656 -2.53125 11.585938 -2.046875 11.265625 -1.546875 C 10.941406 -1.046875 10.597656 -0.617188 10.234375 -0.265625 C 9.878906 0.0859375 9.457031 0.375 8.96875 0.59375 C 8.476562 0.820312 7.957031 0.9375 7.40625 0.9375 C 5.90625 0.9375 5.171875 -0.375 5.203125 -3 C 4.410156 -1.769531 3.394531 -1.1875 2.15625 -1.25 C 1.457031 -1.28125 0.929688 -1.5625 0.578125 -2.09375 C 0.222656 -2.632812 0.03125 -3.304688 0 -4.109375 C -0.0195312 -4.921875 0.0078125 -5.722656 0.09375 -6.515625 C 0.175781 -7.316406 0.265625 -8.0625 0.359375 -8.75 C 0.460938 -9.4375 0.492188 -9.859375 0.453125 -10.015625 C 0.546875 -10.023438 0.671875 -10.039062 0.828125 -10.0625 C 0.984375 -10.09375 1.257812 -10.09375 1.65625 -10.0625 C 2.050781 -10.039062 2.390625 -9.972656 2.671875 -9.859375 C 2.953125 -9.742188 3.191406 -9.519531 3.390625 -9.1875 C 3.597656 -8.863281 3.664062 -8.441406 3.59375 -7.921875 C 3.1875 -5.066406 3.160156 -3.488281 3.515625 -3.1875 C 3.734375 -3.019531 4.09375 -3.191406 4.59375 -3.703125 C 5.082031 -4.203125 5.429688 -4.90625 5.640625 -5.8125 C 5.847656 -6.71875 5.9375 -7.5 5.90625 -8.15625 L 5.859375 -9.140625 C 5.921875 -9.160156 6 -9.175781 6.09375 -9.1875 C 6.1875 -9.207031 6.367188 -9.21875 6.640625 -9.21875 C 6.921875 -9.226562 7.179688 -9.21875 7.421875 -9.1875 C 7.660156 -9.15625 7.925781 -9.078125 8.21875 -8.953125 C 8.519531 -8.828125 8.769531 -8.660156 8.96875 -8.453125 C 9.164062 -8.242188 9.328125 -7.941406 9.453125 -7.546875 C 9.578125 -7.160156 9.613281 -6.703125 9.5625 -6.171875 C 9.53125 -5.742188 9.476562 -5.15625 9.40625 -4.40625 C 9.226562 -2.550781 9.210938 -1.5 9.359375 -1.25 C 9.523438 -0.976562 9.898438 -1.179688 10.484375 -1.859375 C 10.992188 -2.460938 11.425781 -3.253906 11.78125 -4.234375 C 12.144531 -5.210938 12.375 -6.035156 12.46875 -6.703125 Z M 12.640625 -7.6875 "/></g></g></g><g fill="#ff3131" fill-opacity="1"><g transform="translate(87.366163, 31.817787)"><g><path d="M 11.65625 -6.828125 C 11.65625 -6.828125 11.828125 -6.832031 12.171875 -6.84375 C 12.390625 -6.800781 12.46875 -6.675781 12.40625 -6.46875 C 12.40625 -6.457031 12.347656 -6.265625 12.234375 -5.890625 C 12.128906 -5.515625 12.015625 -5.109375 11.890625 -4.671875 C 11.765625 -4.234375 11.582031 -3.695312 11.34375 -3.0625 C 11.113281 -2.425781 10.867188 -1.816406 10.609375 -1.234375 C 10.347656 -0.660156 10.03125 -0.078125 9.65625 0.515625 C 9.28125 1.109375 8.894531 1.613281 8.5 2.03125 C 8.101562 2.457031 7.644531 2.800781 7.125 3.0625 C 6.613281 3.320312 6.082031 3.4375 5.53125 3.40625 C 5.113281 3.382812 4.765625 3.242188 4.484375 2.984375 C 4.203125 2.734375 4.003906 2.378906 3.890625 1.921875 C 3.785156 1.472656 3.71875 0.988281 3.6875 0.46875 C 3.65625 -0.0507812 3.671875 -0.65625 3.734375 -1.34375 C 3.804688 -2.03125 3.878906 -2.648438 3.953125 -3.203125 C 4.035156 -3.753906 4.128906 -4.375 4.234375 -5.0625 C 4.335938 -5.75 4.410156 -6.28125 4.453125 -6.65625 C 3.472656 -6.675781 2.695312 -6.765625 2.125 -6.921875 C 1.550781 -7.085938 1.1875 -7.296875 1.03125 -7.546875 C 0.875 -7.796875 0.773438 -8.078125 0.734375 -8.390625 C 0.703125 -8.703125 0.71875 -9.023438 0.78125 -9.359375 C 0.851562 -9.703125 0.828125 -10.035156 0.703125 -10.359375 C 0.796875 -10.410156 0.914062 -10.457031 1.0625 -10.5 C 1.21875 -10.550781 1.484375 -10.609375 1.859375 -10.671875 C 2.242188 -10.734375 2.582031 -10.734375 2.875 -10.671875 C 3.164062 -10.609375 3.414062 -10.425781 3.625 -10.125 C 3.832031 -9.832031 3.914062 -9.40625 3.875 -8.84375 C 3.84375 -8.4375 4.175781 -8.234375 4.875 -8.234375 C 5.125 -8.242188 5.375 -8.238281 5.625 -8.21875 C 5.875 -8.207031 6.171875 -8.144531 6.515625 -8.03125 C 6.859375 -7.914062 7.144531 -7.75 7.375 -7.53125 C 7.601562 -7.3125 7.785156 -6.984375 7.921875 -6.546875 C 8.066406 -6.117188 8.097656 -5.617188 8.015625 -5.046875 C 7.640625 -2.171875 7.46875 -0.414062 7.5 0.21875 C 7.53125 1.40625 7.9375 1.578125 8.71875 0.734375 C 9.269531 0.148438 9.789062 -0.769531 10.28125 -2.03125 C 10.769531 -3.289062 11.125 -4.40625 11.34375 -5.375 Z M 11.65625 -6.828125 "/></g></g></g><g fill="#000000" fill-opacity="1"><g transform="translate(45.321213, 19.194869)"><g><path d="M 1.9375 -0.125 L 1.71875 0.09375 L 1.671875 0.15625 L 1.609375 0.09375 L 0.671875 -0.828125 L 0.671875 0.078125 L 0.203125 0.078125 L 0.203125 -2.296875 L 0.671875 -2.296875 L 0.671875 -1.40625 L 1.46875 -2.28125 L 1.53125 -2.34375 L 1.78125 -2.09375 L 1.84375 -2.046875 L 1.796875 -1.984375 L 0.984375 -1.140625 L 1.921875 -0.234375 L 1.984375 -0.1875 Z M 1.9375 -0.125 "/></g></g></g><g fill="#000000" fill-opacity="1"><g transform="translate(47.528263, 19.194869)"><g><path d="M -0.046875 -0.109375 L 0.828125 -2.25 L 0.84375 -2.296875 L 1.28125 -2.296875 L 1.296875 -2.25 L 2.15625 -0.109375 L 2.1875 -0.03125 L 2.109375 0 L 1.84375 0.109375 L 1.765625 0.140625 L 1.734375 0.0625 L 1.515625 -0.515625 L 0.59375 -0.515625 L 0.359375 0.046875 L 0.328125 0.125 L 0.265625 0.09375 L 0 0 L -0.078125 -0.03125 Z M 0.75 -0.9375 L 1.34375 -0.9375 L 1.046875 -1.703125 Z M 0.75 -0.9375 "/></g></g></g><g fill="#000000" fill-opacity="1"><g transform="translate(49.947768, 19.194869)"><g><path d="M 0.65625 -1.515625 L 0.65625 0.078125 L 0.203125 0.078125 L 0.203125 -2.296875 L 0.734375 -2.296875 L 0.75 -2.265625 L 1.59375 -0.6875 L 1.59375 -2.296875 L 2.03125 -2.296875 L 2.03125 0.078125 L 1.515625 0.078125 L 1.484375 0.03125 Z M 0.65625 -1.515625 "/></g></g></g><g fill="#000000" fill-opacity="1"><g transform="translate(52.484599, 19.194869)"><g><path d="M 0.28125 -2.296875 C 0.363281 -2.304688 0.457031 -2.3125 0.5625 -2.3125 C 0.664062 -2.320312 0.773438 -2.328125 0.890625 -2.328125 C 1.035156 -2.328125 1.164062 -2.304688 1.28125 -2.265625 C 1.300781 -2.265625 1.320312 -2.257812 1.34375 -2.25 C 1.363281 -2.25 1.378906 -2.242188 1.390625 -2.234375 C 1.410156 -2.222656 1.425781 -2.210938 1.4375 -2.203125 C 1.457031 -2.191406 1.472656 -2.179688 1.484375 -2.171875 C 1.503906 -2.160156 1.519531 -2.148438 1.53125 -2.140625 C 1.550781 -2.140625 1.570312 -2.132812 1.59375 -2.125 C 1.675781 -2.050781 1.738281 -1.96875 1.78125 -1.875 C 1.820312 -1.78125 1.84375 -1.675781 1.84375 -1.5625 C 1.84375 -1.4375 1.816406 -1.320312 1.765625 -1.21875 C 1.710938 -1.113281 1.640625 -1.023438 1.546875 -0.953125 C 1.503906 -0.921875 1.457031 -0.890625 1.40625 -0.859375 C 1.351562 -0.835938 1.296875 -0.816406 1.234375 -0.796875 C 1.109375 -0.765625 0.972656 -0.75 0.828125 -0.75 C 0.816406 -0.75 0.800781 -0.75 0.78125 -0.75 C 0.757812 -0.75 0.738281 -0.75 0.71875 -0.75 C 0.695312 -0.75 0.679688 -0.75 0.671875 -0.75 L 0.671875 0.078125 L 0.203125 0.078125 L 0.203125 -2.28125 Z M 0.875 -1.15625 C 1.039062 -1.15625 1.171875 -1.191406 1.265625 -1.265625 C 1.347656 -1.328125 1.390625 -1.421875 1.390625 -1.546875 C 1.390625 -1.660156 1.347656 -1.75 1.265625 -1.8125 C 1.179688 -1.875 1.054688 -1.90625 0.890625 -1.90625 C 0.867188 -1.90625 0.847656 -1.90625 0.828125 -1.90625 C 0.816406 -1.90625 0.800781 -1.90625 0.78125 -1.90625 C 0.769531 -1.90625 0.753906 -1.90625 0.734375 -1.90625 C 0.710938 -1.90625 0.691406 -1.90625 0.671875 -1.90625 L 0.671875 -1.171875 L 0.71875 -1.15625 C 0.726562 -1.15625 0.738281 -1.15625 0.75 -1.15625 C 0.769531 -1.15625 0.789062 -1.15625 0.8125 -1.15625 C 0.832031 -1.15625 0.851562 -1.15625 0.875 -1.15625 Z M 0.875 -1.15625 "/></g></g></g><g fill="#000000" fill-opacity="1"><g transform="translate(54.62823, 19.194869)"><g><path d="M 1.59375 -2.296875 L 1.96875 -2.296875 L 1.96875 -0.859375 C 1.96875 -0.710938 1.945312 -0.578125 1.90625 -0.453125 C 1.863281 -0.328125 1.800781 -0.222656 1.71875 -0.140625 C 1.695312 -0.128906 1.675781 -0.113281 1.65625 -0.09375 C 1.644531 -0.0820312 1.628906 -0.0664062 1.609375 -0.046875 C 1.597656 -0.0351562 1.582031 -0.0234375 1.5625 -0.015625 C 1.539062 -0.00390625 1.519531 0.00390625 1.5 0.015625 C 1.476562 0.0234375 1.453125 0.0351562 1.421875 0.046875 C 1.316406 0.0976562 1.195312 0.125 1.0625 0.125 C 0.78125 0.125 0.554688 0.0351562 0.390625 -0.140625 C 0.234375 -0.304688 0.15625 -0.539062 0.15625 -0.84375 L 0.15625 -2.296875 L 0.625 -2.296875 L 0.625 -0.890625 C 0.625 -0.691406 0.660156 -0.539062 0.734375 -0.4375 C 0.765625 -0.394531 0.804688 -0.359375 0.859375 -0.328125 C 0.910156 -0.304688 0.976562 -0.296875 1.0625 -0.296875 C 1.21875 -0.296875 1.332031 -0.34375 1.40625 -0.4375 C 1.476562 -0.539062 1.515625 -0.691406 1.515625 -0.890625 L 1.515625 -2.296875 Z M 1.59375 -2.296875 "/></g></g></g><g fill="#000000" fill-opacity="1"><g transform="translate(57.054076, 19.194869)"><g><path d="M 1.5 0.0625 L 1.234375 -0.53125 C 1.171875 -0.664062 1.09375 -0.757812 1 -0.8125 C 0.96875 -0.832031 0.9375 -0.847656 0.90625 -0.859375 C 0.875 -0.867188 0.835938 -0.875 0.796875 -0.875 C 0.753906 -0.882812 0.710938 -0.894531 0.671875 -0.90625 L 0.671875 0.078125 L 0.203125 0.078125 L 0.203125 -2.28125 L 0.28125 -2.296875 C 0.332031 -2.296875 0.382812 -2.296875 0.4375 -2.296875 C 0.5 -2.304688 0.554688 -2.3125 0.609375 -2.3125 C 0.703125 -2.320312 0.8125 -2.328125 0.9375 -2.328125 C 1.070312 -2.328125 1.195312 -2.3125 1.3125 -2.28125 C 1.425781 -2.25 1.519531 -2.203125 1.59375 -2.140625 C 1.664062 -2.078125 1.722656 -2.003906 1.765625 -1.921875 C 1.804688 -1.847656 1.828125 -1.757812 1.828125 -1.65625 C 1.828125 -1.476562 1.773438 -1.335938 1.671875 -1.234375 C 1.597656 -1.160156 1.507812 -1.097656 1.40625 -1.046875 C 1.425781 -1.035156 1.441406 -1.023438 1.453125 -1.015625 C 1.460938 -1.003906 1.472656 -0.988281 1.484375 -0.96875 C 1.503906 -0.945312 1.519531 -0.925781 1.53125 -0.90625 C 1.550781 -0.882812 1.570312 -0.859375 1.59375 -0.828125 C 1.625 -0.785156 1.65625 -0.722656 1.6875 -0.640625 L 1.9375 -0.125 L 1.96875 -0.0625 L 1.890625 -0.015625 L 1.609375 0.109375 L 1.546875 0.140625 Z M 0.9375 -1.90625 C 0.894531 -1.90625 0.859375 -1.90625 0.828125 -1.90625 C 0.796875 -1.90625 0.769531 -1.90625 0.75 -1.90625 C 0.738281 -1.90625 0.726562 -1.90625 0.71875 -1.90625 C 0.707031 -1.90625 0.695312 -1.90625 0.6875 -1.90625 C 0.675781 -1.90625 0.671875 -1.90625 0.671875 -1.90625 L 0.671875 -1.3125 L 0.9375 -1.3125 C 1.070312 -1.3125 1.179688 -1.34375 1.265625 -1.40625 C 1.335938 -1.457031 1.375 -1.53125 1.375 -1.625 C 1.375 -1.664062 1.363281 -1.703125 1.34375 -1.734375 C 1.332031 -1.765625 1.304688 -1.796875 1.265625 -1.828125 C 1.234375 -1.859375 1.1875 -1.878906 1.125 -1.890625 C 1.070312 -1.898438 1.007812 -1.90625 0.9375 -1.90625 Z M 0.9375 -1.90625 "/></g></g></g><g fill="#000000" fill-opacity="1"><g transform="translate(59.311861, 19.194869)"><g/></g></g><g fill="#000000" fill-opacity="1"><g transform="translate(60.564449, 19.194869)"><g><path d="M 1.984375 -1.46875 L 1.53125 -0.46875 L 1.515625 -0.421875 L 1.109375 -0.421875 L 1.09375 -0.46875 L 0.65625 -1.46875 L 0.65625 0.078125 L 0.203125 0.078125 L 0.203125 -2.296875 L 0.765625 -2.296875 L 0.78125 -2.25 L 1.328125 -1.015625 L 1.859375 -2.25 L 1.875 -2.296875 L 2.4375 -2.296875 L 2.4375 0.078125 L 1.984375 0.078125 Z M 1.984375 -1.46875 "/></g></g></g><g fill="#000000" fill-opacity="1"><g transform="translate(63.510335, 19.194869)"><g><path d="M 0.28125 -2.296875 L 1.703125 -2.296875 L 1.703125 -1.875 L 0.671875 -1.875 L 0.671875 -1.359375 L 1.546875 -1.359375 L 1.546875 -0.953125 L 0.671875 -0.953125 L 0.671875 -0.34375 L 1.703125 -0.34375 L 1.703125 0.078125 L 0.203125 0.078125 L 0.203125 -2.296875 Z M 0.28125 -2.296875 "/></g></g></g><g fill="#000000" fill-opacity="1"><g transform="translate(65.57152, 19.194869)"><g><path d="M 0.28125 -2.296875 C 0.300781 -2.296875 0.320312 -2.296875 0.34375 -2.296875 C 0.375 -2.296875 0.398438 -2.296875 0.421875 -2.296875 C 0.453125 -2.304688 0.476562 -2.3125 0.5 -2.3125 C 0.519531 -2.3125 0.546875 -2.3125 0.578125 -2.3125 C 0.671875 -2.320312 0.78125 -2.328125 0.90625 -2.328125 C 1.101562 -2.328125 1.273438 -2.296875 1.421875 -2.234375 C 1.578125 -2.171875 1.703125 -2.082031 1.796875 -1.96875 C 1.890625 -1.851562 1.960938 -1.722656 2.015625 -1.578125 C 2.054688 -1.429688 2.078125 -1.273438 2.078125 -1.109375 C 2.078125 -0.953125 2.054688 -0.800781 2.015625 -0.65625 C 2.003906 -0.625 1.992188 -0.59375 1.984375 -0.5625 C 1.972656 -0.53125 1.957031 -0.5 1.9375 -0.46875 C 1.925781 -0.445312 1.910156 -0.421875 1.890625 -0.390625 C 1.878906 -0.367188 1.863281 -0.347656 1.84375 -0.328125 C 1.832031 -0.304688 1.816406 -0.28125 1.796875 -0.25 C 1.691406 -0.144531 1.5625 -0.0546875 1.40625 0.015625 C 1.257812 0.078125 1.082031 0.109375 0.875 0.109375 C 0.851562 0.109375 0.832031 0.109375 0.8125 0.109375 C 0.789062 0.109375 0.769531 0.109375 0.75 0.109375 C 0.726562 0.109375 0.707031 0.101562 0.6875 0.09375 C 0.675781 0.09375 0.660156 0.09375 0.640625 0.09375 C 0.628906 0.09375 0.613281 0.09375 0.59375 0.09375 C 0.582031 0.09375 0.566406 0.09375 0.546875 0.09375 C 0.453125 0.09375 0.363281 0.0859375 0.28125 0.078125 L 0.203125 0.0625 L 0.203125 -2.28125 Z M 0.890625 -1.90625 C 0.859375 -1.90625 0.828125 -1.90625 0.796875 -1.90625 C 0.773438 -1.90625 0.753906 -1.90625 0.734375 -1.90625 C 0.710938 -1.90625 0.691406 -1.898438 0.671875 -1.890625 L 0.671875 -0.328125 C 0.679688 -0.328125 0.6875 -0.328125 0.6875 -0.328125 C 0.695312 -0.328125 0.703125 -0.328125 0.703125 -0.328125 C 0.710938 -0.328125 0.722656 -0.328125 0.734375 -0.328125 C 0.773438 -0.316406 0.820312 -0.3125 0.875 -0.3125 C 0.90625 -0.3125 0.929688 -0.3125 0.953125 -0.3125 C 0.984375 -0.320312 1.007812 -0.328125 1.03125 -0.328125 C 1.050781 -0.328125 1.070312 -0.328125 1.09375 -0.328125 C 1.113281 -0.335938 1.132812 -0.34375 1.15625 -0.34375 C 1.175781 -0.351562 1.195312 -0.363281 1.21875 -0.375 C 1.3125 -0.414062 1.382812 -0.46875 1.4375 -0.53125 C 1.5 -0.601562 1.546875 -0.6875 1.578125 -0.78125 C 1.609375 -0.882812 1.625 -0.992188 1.625 -1.109375 C 1.625 -1.210938 1.609375 -1.316406 1.578125 -1.421875 C 1.546875 -1.515625 1.5 -1.597656 1.4375 -1.671875 C 1.414062 -1.703125 1.382812 -1.734375 1.34375 -1.765625 C 1.300781 -1.796875 1.257812 -1.820312 1.21875 -1.84375 C 1.125 -1.882812 1.015625 -1.90625 0.890625 -1.90625 Z M 0.890625 -1.90625 "/></g></g></g><g fill="#000000" fill-opacity="1"><g transform="translate(68.03542, 19.194869)"><g><path d="M 0.203125 0 L 0.203125 -2.296875 L 0.671875 -2.296875 L 0.671875 0.078125 L 0.203125 0.078125 Z M 0.203125 0 "/></g></g></g><g fill="#000000" fill-opacity="1"><g transform="translate(69.208734, 19.194869)"><g><path d="M -0.046875 -0.109375 L 0.828125 -2.25 L 0.84375 -2.296875 L 1.28125 -2.296875 L 1.296875 -2.25 L 2.15625 -0.109375 L 2.1875 -0.03125 L 2.109375 0 L 1.84375 0.109375 L 1.765625 0.140625 L 1.734375 0.0625 L 1.515625 -0.515625 L 0.59375 -0.515625 L 0.359375 0.046875 L 0.328125 0.125 L 0.265625 0.09375 L 0 0 L -0.078125 -0.03125 Z M 0.75 -0.9375 L 1.34375 -0.9375 L 1.046875 -1.703125 Z M 0.75 -0.9375 "/></g></g></g><g fill="#000000" fill-opacity="1"><g transform="translate(71.628238, 19.194869)"><g/></g></g><g fill="#000000" fill-opacity="1"><g transform="translate(72.880826, 19.194869)"><g><path d="M 0.65625 -1.515625 L 0.65625 0.078125 L 0.203125 0.078125 L 0.203125 -2.296875 L 0.734375 -2.296875 L 0.75 -2.265625 L 1.59375 -0.6875 L 1.59375 -2.296875 L 2.03125 -2.296875 L 2.03125 0.078125 L 1.515625 0.078125 L 1.484375 0.03125 Z M 0.65625 -1.515625 "/></g></g></g><g fill="#000000" fill-opacity="1"><g transform="translate(75.417656, 19.194869)"><g><path d="M 0.28125 -2.296875 L 1.703125 -2.296875 L 1.703125 -1.875 L 0.671875 -1.875 L 0.671875 -1.359375 L 1.546875 -1.359375 L 1.546875 -0.953125 L 0.671875 -0.953125 L 0.671875 -0.34375 L 1.703125 -0.34375 L 1.703125 0.078125 L 0.203125 0.078125 L 0.203125 -2.296875 Z M 0.28125 -2.296875 "/></g></g></g><g fill="#000000" fill-opacity="1"><g transform="translate(77.478841, 19.194869)"><g><path d="M 0.03125 -2.296875 L 1.78125 -2.296875 L 1.78125 -1.875 L 1.09375 -1.875 L 1.09375 0.078125 L 0.640625 0.078125 L 0.640625 -1.875 L -0.046875 -1.875 L -0.046875 -2.296875 Z M 0.03125 -2.296875 "/></g></g></g><g fill="#000000" fill-opacity="1"><g transform="translate(79.508316, 19.194869)"><g><path d="M 0.015625 -2.21875 L 0.328125 -2.3125 L 0.40625 -2.34375 L 0.421875 -2.265625 L 0.84375 -0.625 L 1.25 -2.015625 L 1.265625 -2.0625 L 1.75 -2.0625 L 1.765625 -2.015625 L 2.15625 -0.625 L 2.59375 -2.25 L 2.609375 -2.328125 L 2.6875 -2.3125 L 2.96875 -2.21875 L 3.046875 -2.203125 L 3.015625 -2.125 L 2.421875 0.015625 L 2.40625 0.078125 L 1.90625 0.078125 L 1.890625 0.015625 L 1.5 -1.375 L 1.09375 0.015625 L 1.078125 0.078125 L 0.59375 0.078125 L 0.578125 0.015625 L -0.03125 -2.125 L -0.046875 -2.203125 Z M 0.015625 -2.21875 "/></g></g></g><g fill="#000000" fill-opacity="1"><g transform="translate(82.799836, 19.194869)"><g><path d="M 0.078125 -1.109375 C 0.078125 -1.285156 0.101562 -1.445312 0.15625 -1.59375 C 0.207031 -1.738281 0.28125 -1.867188 0.375 -1.984375 C 0.46875 -2.097656 0.585938 -2.1875 0.734375 -2.25 C 0.804688 -2.28125 0.878906 -2.300781 0.953125 -2.3125 C 1.035156 -2.332031 1.117188 -2.34375 1.203125 -2.34375 C 1.285156 -2.34375 1.367188 -2.332031 1.453125 -2.3125 C 1.535156 -2.300781 1.609375 -2.273438 1.671875 -2.234375 C 1.742188 -2.203125 1.804688 -2.164062 1.859375 -2.125 C 1.921875 -2.082031 1.976562 -2.03125 2.03125 -1.96875 C 2.125 -1.863281 2.203125 -1.738281 2.265625 -1.59375 C 2.304688 -1.4375 2.328125 -1.273438 2.328125 -1.109375 C 2.328125 -0.941406 2.304688 -0.785156 2.265625 -0.640625 C 2.242188 -0.585938 2.222656 -0.535156 2.203125 -0.484375 C 2.179688 -0.441406 2.15625 -0.398438 2.125 -0.359375 C 2.09375 -0.316406 2.0625 -0.28125 2.03125 -0.25 C 1.988281 -0.1875 1.9375 -0.132812 1.875 -0.09375 C 1.8125 -0.0507812 1.75 -0.015625 1.6875 0.015625 C 1.539062 0.0859375 1.378906 0.125 1.203125 0.125 C 1.023438 0.125 0.867188 0.0859375 0.734375 0.015625 C 0.691406 0.00390625 0.65625 -0.0078125 0.625 -0.03125 C 0.59375 -0.0507812 0.5625 -0.0703125 0.53125 -0.09375 C 0.507812 -0.113281 0.484375 -0.132812 0.453125 -0.15625 C 0.421875 -0.1875 0.394531 -0.21875 0.375 -0.25 C 0.28125 -0.363281 0.207031 -0.492188 0.15625 -0.640625 C 0.101562 -0.785156 0.078125 -0.941406 0.078125 -1.109375 Z M 0.546875 -1.109375 C 0.546875 -1.054688 0.546875 -1.003906 0.546875 -0.953125 C 0.554688 -0.898438 0.570312 -0.847656 0.59375 -0.796875 C 0.601562 -0.753906 0.617188 -0.707031 0.640625 -0.65625 C 0.660156 -0.613281 0.6875 -0.578125 0.71875 -0.546875 C 0.726562 -0.523438 0.738281 -0.507812 0.75 -0.5 C 0.757812 -0.488281 0.769531 -0.476562 0.78125 -0.46875 C 0.789062 -0.457031 0.800781 -0.445312 0.8125 -0.4375 C 0.820312 -0.425781 0.832031 -0.414062 0.84375 -0.40625 C 0.863281 -0.40625 0.878906 -0.398438 0.890625 -0.390625 C 0.898438 -0.378906 0.910156 -0.367188 0.921875 -0.359375 C 1.003906 -0.316406 1.097656 -0.296875 1.203125 -0.296875 C 1.242188 -0.296875 1.28125 -0.296875 1.3125 -0.296875 C 1.34375 -0.304688 1.375 -0.316406 1.40625 -0.328125 C 1.4375 -0.335938 1.460938 -0.347656 1.484375 -0.359375 C 1.566406 -0.398438 1.640625 -0.457031 1.703125 -0.53125 C 1.710938 -0.550781 1.722656 -0.570312 1.734375 -0.59375 C 1.753906 -0.625 1.769531 -0.65625 1.78125 -0.6875 C 1.800781 -0.71875 1.816406 -0.75 1.828125 -0.78125 C 1.859375 -0.882812 1.875 -0.992188 1.875 -1.109375 C 1.875 -1.210938 1.859375 -1.316406 1.828125 -1.421875 C 1.796875 -1.515625 1.75 -1.597656 1.6875 -1.671875 C 1.632812 -1.742188 1.566406 -1.804688 1.484375 -1.859375 C 1.398438 -1.898438 1.304688 -1.921875 1.203125 -1.921875 C 1.179688 -1.921875 1.15625 -1.914062 1.125 -1.90625 C 1.101562 -1.90625 1.078125 -1.898438 1.046875 -1.890625 C 1.023438 -1.890625 1.003906 -1.882812 0.984375 -1.875 C 0.960938 -1.875 0.941406 -1.867188 0.921875 -1.859375 C 0.878906 -1.835938 0.84375 -1.8125 0.8125 -1.78125 C 0.78125 -1.757812 0.75 -1.726562 0.71875 -1.6875 C 0.664062 -1.625 0.625 -1.539062 0.59375 -1.4375 C 0.5625 -1.332031 0.546875 -1.222656 0.546875 -1.109375 Z M 0.546875 -1.109375 "/></g></g></g><g fill="#000000" fill-opacity="1"><g transform="translate(85.51424, 19.194869)"><g><path d="M 1.5 0.0625 L 1.234375 -0.53125 C 1.171875 -0.664062 1.09375 -0.757812 1 -0.8125 C 0.96875 -0.832031 0.9375 -0.847656 0.90625 -0.859375 C 0.875 -0.867188 0.835938 -0.875 0.796875 -0.875 C 0.753906 -0.882812 0.710938 -0.894531 0.671875 -0.90625 L 0.671875 0.078125 L 0.203125 0.078125 L 0.203125 -2.28125 L 0.28125 -2.296875 C 0.332031 -2.296875 0.382812 -2.296875 0.4375 -2.296875 C 0.5 -2.304688 0.554688 -2.3125 0.609375 -2.3125 C 0.703125 -2.320312 0.8125 -2.328125 0.9375 -2.328125 C 1.070312 -2.328125 1.195312 -2.3125 1.3125 -2.28125 C 1.425781 -2.25 1.519531 -2.203125 1.59375 -2.140625 C 1.664062 -2.078125 1.722656 -2.003906 1.765625 -1.921875 C 1.804688 -1.847656 1.828125 -1.757812 1.828125 -1.65625 C 1.828125 -1.476562 1.773438 -1.335938 1.671875 -1.234375 C 1.597656 -1.160156 1.507812 -1.097656 1.40625 -1.046875 C 1.425781 -1.035156 1.441406 -1.023438 1.453125 -1.015625 C 1.460938 -1.003906 1.472656 -0.988281 1.484375 -0.96875 C 1.503906 -0.945312 1.519531 -0.925781 1.53125 -0.90625 C 1.550781 -0.882812 1.570312 -0.859375 1.59375 -0.828125 C 1.625 -0.785156 1.65625 -0.722656 1.6875 -0.640625 L 1.9375 -0.125 L 1.96875 -0.0625 L 1.890625 -0.015625 L 1.609375 0.109375 L 1.546875 0.140625 Z M 0.9375 -1.90625 C 0.894531 -1.90625 0.859375 -1.90625 0.828125 -1.90625 C 0.796875 -1.90625 0.769531 -1.90625 0.75 -1.90625 C 0.738281 -1.90625 0.726562 -1.90625 0.71875 -1.90625 C 0.707031 -1.90625 0.695312 -1.90625 0.6875 -1.90625 C 0.675781 -1.90625 0.671875 -1.90625 0.671875 -1.90625 L 0.671875 -1.3125 L 0.9375 -1.3125 C 1.070312 -1.3125 1.179688 -1.34375 1.265625 -1.40625 C 1.335938 -1.457031 1.375 -1.53125 1.375 -1.625 C 1.375 -1.664062 1.363281 -1.703125 1.34375 -1.734375 C 1.332031 -1.765625 1.304688 -1.796875 1.265625 -1.828125 C 1.234375 -1.859375 1.1875 -1.878906 1.125 -1.890625 C 1.070312 -1.898438 1.007812 -1.90625 0.9375 -1.90625 Z M 0.9375 -1.90625 "/></g></g></g><g fill="#000000" fill-opacity="1"><g transform="translate(87.772025, 19.194869)"><g><path d="M 1.9375 -0.125 L 1.71875 0.09375 L 1.671875 0.15625 L 1.609375 0.09375 L 0.671875 -0.828125 L 0.671875 0.078125 L 0.203125 0.078125 L 0.203125 -2.296875 L 0.671875 -2.296875 L 0.671875 -1.40625 L 1.46875 -2.28125 L 1.53125 -2.34375 L 1.78125 -2.09375 L 1.84375 -2.046875 L 1.796875 -1.984375 L 0.984375 -1.140625 L 1.921875 -0.234375 L 1.984375 -0.1875 Z M 1.9375 -0.125 "/></g></g></g></svg>